<svg width="19" height="22" viewBox="0 0 19 22" fill="none" xmlns="http://www.w3.org/2000/svg">
<path d="M9.5 1.375C10.3998 1.375 11.2628 1.73716 11.8991 2.38182C12.5354 3.02648 12.8929 3.90082 12.8929 4.8125V5.5H6.10714V4.8125C6.10714 3.90082 6.4646 3.02648 7.10089 2.38182C7.73717 1.73716 8.60016 1.375 9.5 1.375ZM14.25 5.5V4.8125C14.25 3.53615 13.7496 2.31207 12.8588 1.40955C11.968 0.50703 10.7598 0 9.5 0C8.24022 0 7.03204 0.50703 6.14124 1.40955C5.25045 2.31207 4.75 3.53615 4.75 4.8125V5.5H0V19.25C0 19.9793 0.285969 20.6788 0.794996 21.1945C1.30402 21.7103 1.99441 22 2.71429 22H16.2857C17.0056 22 17.696 21.7103 18.205 21.1945C18.714 20.6788 19 19.9793 19 19.25V5.5H14.25ZM1.35714 6.875H17.6429V19.25C17.6429 19.6147 17.4999 19.9644 17.2454 20.2223C16.9908 20.4801 16.6457 20.625 16.2857 20.625H2.71429C2.35435 20.625 2.00915 20.4801 1.75464 20.2223C1.50013 19.9644 1.35714 19.6147 1.35714 19.25V6.875Z" fill="black"/>
</svg>
