<svg width="14" height="14" viewBox="0 0 14 14" fill="none" xmlns="http://www.w3.org/2000/svg">
<path d="M7.04507 2H7.12295C7.84224 2.00267 11.4868 2.02936 12.4695 2.29807C12.7666 2.38008 13.0373 2.53993 13.2546 2.76164C13.4719 2.98336 13.6281 3.25917 13.7077 3.56153C13.7961 3.89964 13.8582 4.34718 13.9002 4.80897L13.909 4.9015L13.9282 5.13284L13.9352 5.22538C13.9921 6.03862 13.9991 6.80025 14 6.96663V7.03337C13.9991 7.20598 13.9913 8.01922 13.9282 8.86627L13.9212 8.95969L13.9134 9.05223C13.8696 9.56117 13.8049 10.0666 13.7077 10.4385C13.6284 10.7409 13.4722 11.0169 13.2549 11.2386C13.0376 11.4604 12.7667 11.6202 12.4695 11.7019C11.4545 11.9795 7.59635 11.9991 7.06169 12H6.93743C6.66704 12 5.54872 11.9947 4.37615 11.9537L4.22739 11.9484L4.15126 11.9448L4.00163 11.9386L3.85199 11.9324C2.88068 11.8888 1.95575 11.8185 1.5296 11.701C1.23251 11.6194 0.961742 11.4597 0.74443 11.2381C0.527119 11.0165 0.370889 10.7408 0.291393 10.4385C0.194262 10.0674 0.129508 9.56117 0.0857554 9.05223L0.0787549 8.9588L0.0717545 8.86627C0.0285684 8.26337 0.00463767 7.6592 0 7.05472L0 6.94528C0.00175011 6.75398 0.00875055 6.09289 0.0560035 5.36329L0.0621289 5.27164L0.064754 5.22538L0.0717545 5.13284L0.0910057 4.9015L0.0997562 4.80897C0.141759 4.34718 0.203888 3.89875 0.292268 3.56153C0.37163 3.25905 0.5278 2.9831 0.745121 2.76135C0.962441 2.5396 1.23328 2.37983 1.53047 2.29807C1.95662 2.1824 2.88156 2.11122 3.85287 2.06673L4.00163 2.0605L4.15213 2.05517L4.22739 2.0525L4.37702 2.04627C5.20982 2.01902 6.04296 2.00389 6.87618 2.00089H7.04507V2ZM5.60035 4.85613V9.14298L9.23795 7.00044L5.60035 4.85613Z" fill="white"/>
</svg>
