<svg width="14" height="14" viewBox="0 0 14 14" fill="none" xmlns="http://www.w3.org/2000/svg">
<g clip-path="url(#clip0_0_133)">
<path d="M10.1022 0.0449167C10.8127 0.0775833 11.3038 0.182 11.7577 0.358167C12.188 0.519056 12.5775 0.772795 12.8987 1.10133C13.2272 1.42245 13.4809 1.81202 13.6418 2.24233C13.818 2.69675 13.9224 3.18733 13.9551 3.89783C13.9953 4.77867 14 5.089 14 7C14 8.911 13.9953 9.22133 13.9551 10.1022C13.9224 10.8127 13.818 11.3038 13.6418 11.7582C13.4809 12.1884 13.2271 12.5777 12.8987 12.8987C12.5776 13.2272 12.188 13.481 11.7577 13.6418C11.3032 13.818 10.8127 13.9224 10.1022 13.9551C9.22133 13.9953 8.91158 14 7 14C5.08842 14 4.77808 13.9953 3.89783 13.9551C3.18733 13.9224 2.69617 13.818 2.24175 13.6418C1.81164 13.4809 1.42227 13.2271 1.10133 12.8987C0.772795 12.5775 0.519056 12.188 0.358167 11.7577C0.182 11.3032 0.0775833 10.8127 0.0449167 10.1022C0.00466667 9.2225 0 8.91217 0 7C0 5.08842 0.00466667 4.7775 0.0449167 3.89783C0.0775833 3.18733 0.182 2.69617 0.358167 2.24233C0.519056 1.81202 0.772795 1.42245 1.10133 1.10133C1.42228 0.772866 1.81165 0.519132 2.24175 0.358167C2.69675 0.182 3.18733 0.0775833 3.89783 0.0449167C4.7775 0.00466667 5.08783 0 7 0C8.91158 0 9.2225 0.00466667 10.1022 0.0449167ZM7 1.55575C5.11 1.55575 4.82067 1.55983 3.96842 1.59892C3.42767 1.62342 3.10333 1.69225 2.80525 1.80833C2.57645 1.8913 2.36972 2.0256 2.20092 2.20092C2.02522 2.36941 1.89086 2.57624 1.80833 2.80525C1.69283 3.10275 1.62342 3.42767 1.59892 3.96842C1.55983 4.82067 1.55575 5.11 1.55575 7C1.55575 8.89 1.55983 9.17933 1.59892 10.0316C1.62342 10.5723 1.69225 10.8967 1.80833 11.1942C1.9075 11.4485 2.0125 11.6101 2.20092 11.7991C2.38992 11.9881 2.5515 12.0931 2.80525 12.1917C3.10275 12.3072 3.42767 12.3766 3.96842 12.4011C4.82125 12.4402 5.11058 12.4443 7 12.4443C8.89 12.4443 9.17875 12.4402 10.0316 12.4011C10.5723 12.3766 10.8967 12.3077 11.1947 12.1917C11.4235 12.1087 11.6303 11.9744 11.7991 11.7991C11.9881 11.6101 12.0931 11.4485 12.1917 11.1947C12.3072 10.8972 12.3766 10.5723 12.4011 10.0316C12.4402 9.17875 12.4443 8.88942 12.4443 7C12.4443 5.11058 12.4402 4.82125 12.4011 3.96842C12.3766 3.42767 12.3077 3.10333 12.1917 2.80583C12.1092 2.57663 11.9748 2.3696 11.7991 2.20092C11.6304 2.02516 11.4234 1.8908 11.1942 1.80833C10.8967 1.69283 10.5717 1.62342 10.031 1.59892C9.17875 1.55983 8.88942 1.55575 6.99942 1.55575H7ZM7 10.6295C6.0374 10.6295 5.11422 10.2471 4.43356 9.56644C3.75289 8.88578 3.3705 7.9626 3.3705 7C3.3705 6.0374 3.75289 5.11422 4.43356 4.43356C5.11422 3.75289 6.0374 3.3705 7 3.3705C7.9626 3.3705 8.88578 3.75289 9.56644 4.43356C10.2471 5.11422 10.6295 6.0374 10.6295 7C10.6295 7.9626 10.2471 8.88578 9.56644 9.56644C8.88578 10.2471 7.9626 10.6295 7 10.6295ZM7 9.07433C7.55015 9.07433 8.07776 8.85579 8.46677 8.46677C8.85579 8.07776 9.07433 7.55015 9.07433 7C9.07433 6.44985 8.85579 5.92224 8.46677 5.53322C8.07776 5.14421 7.55015 4.92567 7 4.92567C6.44985 4.92567 5.92224 5.14421 5.53322 5.53322C5.14421 5.92224 4.92567 6.44985 4.92567 7C4.92567 7.55015 5.14421 8.07776 5.53322 8.46677C5.92224 8.85579 6.44985 9.07433 7 9.07433ZM10.6295 4.14808C10.4232 4.14808 10.2253 4.06613 10.0795 3.92025C9.93358 3.77437 9.85162 3.57651 9.85162 3.37021C9.85162 3.1639 9.93358 2.96605 10.0795 2.82017C10.2253 2.67429 10.4232 2.59233 10.6295 2.59233C10.8358 2.59233 11.0337 2.67429 11.1795 2.82017C11.3254 2.96605 11.4074 3.1639 11.4074 3.37021C11.4074 3.57651 11.3254 3.77437 11.1795 3.92025C11.0337 4.06613 10.8358 4.14808 10.6295 4.14808Z" fill="white"/>
</g>
<defs>
<clipPath id="clip0_0_133">
<rect width="14" height="14" fill="white"/>
</clipPath>
</defs>
</svg>
